<?xml version="1.0" encoding="iso-8859-1"?>
<!-- Generator: Adobe Illustrator 19.0.0, SVG Export Plug-In . SVG Version: 6.00 Build 0)  -->
<svg version="1.1" id="Layer_1" xmlns="http://www.w3.org/2000/svg" xmlns:xlink="http://www.w3.org/1999/xlink" x="0px" y="0px"
	 viewBox="0 0 487.994 487.994" style="enable-background:new 0 0 487.994 487.994;" xml:space="preserve">
<g transform="translate(0 -1020.36)" shape-rendering="auto" image-rendering="auto" color-rendering="auto" color-interpolation="sRGB">
	<g>
		<path style="fill:#464C63;" d="M213.943,1020.43c-5.533-0.368-11.193,0.72-16.398,3.344c-8.528,4.312-14.349,12.088-16.523,20.878
			c-9.941-0.304-19.632,3.731-25.987,11.72c-7.761,9.753-9.13,23.243-3.529,34.38c1.356,2.697,3.109,5.098,5.092,7.252
			c-0.11,0.367-0.193,0.74-0.25,1.119c0,0-9.859,63.07-8.153,97.107c3.744,74.67,33.364,144.385,39.885,215.252
			c1.255,13.633,3.286,26.49,0.376,36.975c-1.497,5.395-7.247,15.32-12.525,23.129c-5.279,7.809-10.027,13.846-10.027,13.846
			c-2.723,3.479-2.112,8.51,1.365,11.234c0.947,0.742,2.05,1.262,3.226,1.518l19.491,4.252c35.607,7.893,72.4,7.893,108.007,0
			l19.489-4.252c4.315-0.941,7.05-5.205,6.108-9.523c-0.257-1.178-0.775-2.281-1.517-3.229c0,0-4.748-6.037-10.025-13.846
			c-5.279-7.809-11.028-17.736-12.525-23.129c-2.91-10.482-1.006-23.34,0.25-36.975c6.521-70.869,36.266-140.582,40.012-215.252
			c1.57-31.332-6.086-82.729-7.403-91.42c9.232-11.082,10.086-27.383,1.374-39.35c-8.164-11.211-22.445-15.494-35.201-11.563
			c-5.125-5.165-11.735-8.373-18.896-9.188c-4.503-7.958-12.082-13.837-21.208-15.722l0,0c-7.443-1.536-15-0.16-21.52,3.406
			c-5.77-7.186-14.185-11.389-22.988-11.94L213.943,1020.43z"/>
		<path style="fill:#82DD47;" d="M210.196,1036.433c5.57-0.656,11.244,1.632,14.741,6.376c0.354,0.551,0.774,1.056,1.251,1.504
			c0.03,4.435,3.647,8.005,8.078,7.975c2.241-0.015,4.374-0.968,5.882-2.627c3.809-4.216,9.555-6.122,15.117-4.973
			c4.636,0.96,8.38,3.968,10.588,8.033c0.126,3.523,2.533,6.553,5.935,7.471c1.572,0.617,3.299,0.724,4.935,0.304
			c3.939,0.176,7.646,1.724,10.463,4.5c0.523,4.389,4.502,7.521,8.888,6.998c1.334-0.16,2.606-0.652,3.699-1.434
			c7.156-4.264,16.209-2.365,21.114,4.373c3.857,5.297,3.942,12.012,0.812,17.346H180.867h-0.314
			c-6.254,0.24-11.959-3.121-14.773-8.721c-2.815-5.594-2.119-12.352,1.78-17.252c3.339-4.192,8.434-6.21,13.649-5.813
			c0.117,0.416,0.147,0.88,0.282,1.312c0.901,4.327,5.137,7.103,9.46,6.2c4.324-0.9,7.098-5.139,6.197-9.466
			c-0.103-0.493-0.252-0.976-0.446-1.441c-2.328-7.512,1.014-15.456,8.028-19.003c1.753-0.896,3.608-1.44,5.466-1.657
			L210.196,1036.433z"/>
		<path style="fill:#2ECC71;" d="M171.558,1108.349h9.558h135.305c1.171,8.189,8.693,59.467,7.31,87.076
			c-3.553,70.859-32.961,140.395-39.792,214.627c-1.177,12.785-3.939,27.574,0.25,42.662c2.642,9.518,8.869,19.516,14.524,27.879
			c1.77,2.619,1.879,2.492,3.405,4.598l-7.527,1.658c-33.329,7.387-67.839,7.387-101.167,0l-7.558-1.658
			c1.526-2.104,1.633-1.979,3.405-4.598c5.655-8.363,11.88-18.361,14.524-27.879c4.188-15.088,1.426-29.877,0.25-42.662
			c-6.832-74.234-36.239-143.768-39.792-214.627C162.865,1167.817,170.388,1116.54,171.558,1108.349L171.558,1108.349z"/>
	</g>
	<path style="fill:#464C63;" d="M229.122,1156.347c-6.458,0-11.639,3.215-15.5,7.156c-3.861,3.941-6.697,8.873-7.313,14.75
		c-0.825,7.871,3.413,13.592,7.344,18.5c-5.249-0.447-11.228-0.912-16.406,3.377c-8.919,7.389-12.301,20.422-6.031,31.5
		c2.738,4.836,7.341,7.828,12.25,9.594c-1.025,5.225-0.7,10.816,2.094,15.75c6.036,10.668,19.843,14.654,30.406,8.438
		c0.011,0,0.021,0,0.032,0c3.909-2.307,6.137-6.17,8-10.063c1.863,3.896,4.065,7.752,7.969,10.063c0.011,0,0.021,0,0.032,0
		c10.568,6.227,24.369,2.223,30.406-8.438c2.8-4.945,3.16-10.549,2.125-15.781c4.893-1.771,9.489-4.738,12.219-9.563
		c6.269-11.076,2.885-24.111-6.031-31.5c-5.137-4.258-10.642-3.189-15.875-2.813c3.94-4.916,7.657-11.303,6.844-19.063
		c-0.567-5.412-2.91-10.477-6.719-14.594c-3.809-4.119-9.497-7.314-16.125-7.314c-5.74,0-10.768,2.582-14.813,6.125
		c-0.183-0.176-0.185-0.545-0.375-0.721c-4.102-3.77-9.566-5.406-14.531-5.406L229.122,1156.347z"/>
	<path style="fill:#FFCC00;" d="M229.122,1172.378c2.008,0,2.736,0.287,3.688,1.152c0.952,0.881,2.343,2.957,3.375,7.377
		c1.017,4.307,5.333,6.975,9.64,5.959c3.617-0.855,6.173-4.084,6.173-7.801c0-3.738,2.936-6.686,6.844-6.686
		c1.578,0,2.986,0.688,4.375,2.188c1.388,1.504,2.369,3.793,2.531,5.344c0.281,2.684-0.581,4.543-3.5,8.031
		c-2.919,3.488-7.721,7.656-12.438,13.094c-2.902,3.342-2.547,8.402,0.794,11.305c1.226,1.066,2.748,1.732,4.362,1.914
		c6.813,0.783,11.786-1.344,16.75-2.125c4.964-0.783,8.095-0.225,8.781,0.336c2.223,1.844,3.966,8.359,2.313,11.281
		c-1.89,3.342-5.418,4.236-8.313,2.531l0,0c-0.014-0.008-0.018,0-0.032,0c-3.848-2.188-8.74-0.84-10.926,3.008
		c-2.14,3.768-0.9,8.553,2.801,10.805c2.896,1.705,4.015,5.66,2.125,9c-1.879,3.316-5.415,4.188-8.313,2.5
		c-1.187-0.703-2.203-1.934-2.781-3.658c-1.923-5.73-3.312-10.137-5.75-17.656c-1.361-4.211-5.878-6.521-10.09-5.16
		c-2.449,0.791-4.369,2.711-5.16,5.16c-2.438,7.52-3.828,11.93-5.75,17.656c-0.578,1.725-1.605,2.963-2.781,3.658
		c-2.909,1.713-6.426,0.832-8.313-2.5c-1.892-3.34-0.814-7.285,2.094-9c3.781-2.301,4.98-7.23,2.68-11.012
		c-2.252-3.701-7.038-4.941-10.805-2.801c-2.895,1.703-6.455,0.801-8.344-2.531c-1.653-2.92,0.123-9.441,2.344-11.281
		c1.409-1.168,2.654-1.264,6.969-0.561c4.315,0.703,10.403,2.518,17.75,2.406c4.425-0.07,7.956-3.713,7.886-8.139
		c-0.026-1.674-0.577-3.299-1.574-4.645c-3.69-4.975-8.396-8.896-11.781-12.811c-3.385-3.916-4.699-6.912-4.5-8.813
		c0.114-1.088,1.2-3.51,2.844-5.188c1.644-1.678,3.516-2.344,4.031-2.344L229.122,1172.378z"/>
	<g>
		<path style="fill:#74BD45;" d="M210.196,1036.433c-1.858,0.224-3.713,0.768-5.466,1.656c-7.014,3.549-10.356,11.493-8.028,19.003
			c1.325,3.188,0.455,6.868-2.156,9.126c3.337,2.895,8.387,2.535,11.28-0.805c1.988-2.295,2.507-5.518,1.339-8.321
			c-2.328-7.511,1.008-15.454,8.026-19.003c0.768-0.384,1.583-0.464,2.375-0.72c-2.346-0.864-4.858-1.232-7.371-0.944V1036.433z
			 M251.081,1044.372c-4.142,0.256-8.076,2.12-10.932,5.281c-0.225,0.244-0.466,0.474-0.72,0.688
			c3.297,2.843,8.258,2.537,11.181-0.688c1.817-2.011,4.091-3.466,6.558-4.344c-0.624-0.224-1.231-0.496-1.905-0.624
			c-1.391-0.288-2.805-0.4-4.185-0.304L251.081,1044.372z M181.209,1060.498c-5.213-0.4-10.31,1.622-13.649,5.813
			c-3.899,4.898-4.594,11.658-1.78,17.252c2.815,5.598,8.519,8.961,14.773,8.721h0.32h10.15c-6.254,0.24-11.959-3.121-14.773-8.721
			c-2.815-5.596-2.119-12.354,1.78-17.252c1.088-1.359,2.41-2.418,3.811-3.314c-0.148-0.385-0.265-0.78-0.352-1.184
			c-0.16-0.432-0.16-0.896-0.288-1.312L181.209,1060.498z M305.397,1068.499c-1.655,0.271-3.251,0.961-4.81,1.781
			c2.79,2.248,6.733,2.365,9.651,0.287c0.96-0.561,1.993-0.736,2.998-1.088c-2.519-0.912-5.162-1.408-7.839-0.977V1068.499z"/>
		<path style="fill:#31AF66;" d="M171.558,1108.349c-1.167,8.191-8.693,59.467-7.308,87.076
			c3.553,70.857,32.961,140.393,39.792,214.625c1.183,12.785,3.939,27.574-0.256,42.662c-2.643,9.518-8.869,19.516-14.524,27.881
			c-1.772,2.619-1.879,2.49-3.405,4.594l7.558,1.658c18.376,4.072,37.117,5.668,55.816,5.25c-15.216-0.336-30.4-1.936-45.353-5.25
			l-7.558-1.658c1.519-2.104,1.633-1.975,3.405-4.594c5.655-8.365,11.88-18.361,14.524-27.881
			c4.188-15.088,1.423-29.877,0.256-42.662c-6.832-74.234-36.239-143.768-39.792-214.625c-1.391-27.609,6.138-78.885,7.308-87.076
			h-0.912H171.558z"/>
	</g>
	<path style="fill:#D8AF0C;" d="M229.185,1172.392c-1.583,0-2.982,0.623-4.372,2.125c-1.391,1.504-2.429,3.889-2.592,5.438
		c-0.192,1.898,1.088,4.807,4.467,8.721c3.385,3.916,8.116,7.898,11.807,12.877c2.623,3.564,1.861,8.582-1.701,11.205
		c-0.75,0.553-1.591,0.971-2.484,1.234c1.327,0.16,2.477,0.367,3.904,0.352c4.422-0.105,7.922-3.777,7.818-8.201
		c-0.039-1.654-0.588-3.254-1.571-4.582c-3.689-4.979-8.421-8.961-11.807-12.877c-3.384-3.912-4.697-6.82-4.497-8.721
		c0.16-1.553,1.199-3.938,2.592-5.438c0.544-0.576,1.103-0.912,1.655-1.248c-0.96-0.496-2.01-0.881-3.218-0.881L229.185,1172.392z
		 M258.795,1172.392c-3.913,0-6.84,2.982-6.84,6.721h5.965c0-2.588,1.455-4.717,3.624-5.846c-0.864-0.527-1.78-0.881-2.749-0.881
		V1172.392z M209.852,1211.491c-1.024,0-1.702,0.352-2.405,0.943c-2.223,1.842-3.9,8.43-2.25,11.346
		c1.889,3.332,5.381,4.207,8.277,2.5c0.053,0,0.107,0,0.16,0c-0.928-0.561-1.791-1.297-2.436-2.438
		c-1.652-2.916,0-9.504,2.248-11.346c0.336-0.271,0.768-0.287,1.119-0.432c0-0.004-0.16,0-0.16,0
		c-2.157-0.352-3.534-0.527-4.559-0.465L209.852,1211.491z M277.693,1211.747c-1.503-0.16-3.547,0-6.029,0.352
		c-3.488,0.545-7.016,1.752-11.151,2.189c0.117,0.002,0.235,0.002,0.352,0c6.811,0.783,11.808-1.473,16.772-2.252
		c0.496-0.16,0.736-0.01,1.183,0c-0.416-0.16-0.528-0.24-1.119-0.287L277.693,1211.747z M249.581,1224.78
		c-0.9,0.037-1.786,0.227-2.623,0.561c2.205,0.875,3.91,2.684,4.654,4.938c2.437,7.52,3.856,11.994,5.778,17.721
		c0.576,1.719,1.519,2.949,2.717,3.658c1.903,1.119,4.056,0.992,5.872-0.16c-1.135-0.721-2.063-1.898-2.623-3.563
		c-1.924-5.729-3.373-10.201-5.81-17.721c-1.123-3.412-4.378-5.66-7.966-5.5V1224.78z M223.563,1225.147
		c-1.047-0.016-2.087,0.176-3.061,0.561c4.118,1.627,6.138,6.287,4.512,10.408c-0.657,1.664-1.851,3.063-3.392,3.969
		c-2.912,1.717-4.016,5.625-2.124,8.969c1.885,3.332,5.46,4.305,8.37,2.594c0-0.016,0,0,0.16-0.16c-0.96-0.576-1.876-1.344-2.53-2.5
		c-1.892-3.346-0.784-7.252,2.124-8.971c3.818-2.244,5.094-7.16,2.851-10.98c-1.428-2.434-4.029-3.938-6.849-3.959L223.563,1225.147
		z M275.849,1225.147c-0.849,0.064-1.682,0.266-2.468,0.592c0.386,0.146,0.76,0.322,1.119,0.527c1.911,1.119,4.048,1.008,5.842,0
		c-1.363-0.787-2.928-1.154-4.499-1.057L275.849,1225.147z"/>
</g>
<g>
</g>
<g>
</g>
<g>
</g>
<g>
</g>
<g>
</g>
<g>
</g>
<g>
</g>
<g>
</g>
<g>
</g>
<g>
</g>
<g>
</g>
<g>
</g>
<g>
</g>
<g>
</g>
<g>
</g>
</svg>
