<?xml version="1.0" encoding="iso-8859-1"?>
<!-- Generator: Adobe Illustrator 19.0.0, SVG Export Plug-In . SVG Version: 6.00 Build 0)  -->
<svg version="1.1" id="Layer_1" xmlns="http://www.w3.org/2000/svg" xmlns:xlink="http://www.w3.org/1999/xlink" x="0px" y="0px"
	 viewBox="0 0 456.203 456.203" style="enable-background:new 0 0 456.203 456.203;" xml:space="preserve">
<g transform="translate(0 -1020.36)">
	<path style="fill:#FF883E;" d="M289.64,1450.268c18.91,20.738,44.5,18.004,44.5,18.004c36.175,0.623,44.598-21.201,44.598-21.201
		c6.475-17.623-9.557-22.807-9.557-22.807c-12.023-3.889-16.956,5.182-16.956,5.182c9.866-2.582,9.353,5.27,9.353,5.27
		c0.181,6.65-7.811,7.26-7.811,7.26c-16.648,1.736-18.907-14.514-18.907-14.514c-0.822-4.834-2.365-19.008-2.365-19.008
		c-2.159-15.295-10.174-29.289-10.174-29.289c-32.988-57.801-93.106-33.953-93.106-33.953h-1.131h-1.131
		c0,0-60.118-23.846-93.106,33.953c0,0-8.016,13.996-10.173,29.289c0,0-1.542,14.17-2.365,19.008c0,0-2.262,16.242-18.907,14.514
		c0,0-8.016-0.545-7.811-7.26c0,0-0.544-7.865,9.352-5.27c0,0-4.935-9.07-16.956-5.182c0,0-16.031,5.182-9.557,22.807
		c0,0,8.938,21.895,45.113,21.201c0,0,25.076,2.729,43.986-18.004c74.807-86.914,60.469-76.059,123.115,0H289.64z"/>
	<g shape-rendering="auto" image-rendering="auto" color-rendering="auto" color-interpolation="sRGB">
		<path style="fill:#464C63;" d="M220.089,1020.36c-39.977,0-113.758,16.188-113.758,16.188c-4.291,0.993-6.973,5.269-5.999,9.564
			c0,0,14.68,64.097,15.814,94.481c0.841,22.502-4.215,59.738-6.345,74.697l-4.657-3.096c-18.537-12.34-43.815-12.094-64.598-5.311
			c-10.392,3.395-19.823,8.508-26.69,15.598c-6.867,7.088-11.14,16.916-9.344,27.285c3.973,22.943,20.235,36.42,40.409,40.631
			c20.174,4.209,44.57,1.297,70.505-4.035c51.868-10.674,110.877-31.65,145.635-33.66c8.375-0.48,42.131-2.389,67.942,0.607
			c12.905,1.488,23.865,4.984,26.814,7.471c1.476,1.232,1.197,0.848,1.064,1.748c-0.122,0.896-1.439,3.98-5.782,8.283
			c-3.141,3.109-3.167,8.176-0.059,11.316c1.509,1.525,3.568,2.381,5.713,2.373c17.508,0,41.766-4.529,61.879-13.564
			c10.056-4.518,19.139-10.148,25.533-17.721c6.394-7.572,9.833-17.967,6.844-28.473c-4.106-14.447-12.973-25.482-24.564-32.506
			c-11.591-7.021-25.727-10.309-41.221-11.438l0,0c-18.622-1.359-39.581,0.688-61.254,4.313c-0.181-4.5-1.046-30.645,0.061-44.1
			c2.564-31.021,15.939-94.982,15.939-94.982c0.888-4.293-1.843-8.502-6.126-9.438c0,0-73.78-16.19-113.758-16.19L220.089,1020.36z"
			/>
		<path style="fill:#2ECC71;" d="M220.089,1036.299c33.024,0,93.702,12.871,102.757,14.752
			c-1.947,9.377-12.207,57.867-14.751,88.605c-0.363,4.512-0.544,9.996-0.623,15.66c-13.522-1.568-63.748-7.252-95.413-7.031
			c-26.754,0.176-68.412,5.521-80.412,7.094c0.181-5.256,0.605-10.943,0.423-15.377c-1.173-31.418-12.551-79.443-14.751-88.951
			c9.055-1.881,69.734-14.752,102.758-14.752H220.089z"/>
		<path style="fill:#FCD116;" d="M212.182,1164.348c30.175-0.24,84.083,5.836,95.413,7.127c0.181,8.943,0.423,15.66,0.484,16.346
			c-9.234,1.846-18.546,3.943-27.846,6.189c-36.86,8.898-73.366,20.158-101.82,27.629c-14.227,3.73-26.432,6.49-35.315,7.563
			c-4.439,0.545-8.116,0.607-10.407,0.367c-2.292-0.24-2.854-0.848-2.377-0.367c-0.35-0.389-0.736-0.742-1.155-1.057l-4.596-3.061
			c0.756-4.838,4.27-27.836,6.344-53.51c8.793-1.119,55.632-7.039,81.287-7.219L212.182,1164.348z"/>
		<path style="fill:#57BB63;" d="M361.911,1196.633c7.862-0.416,15.322-0.416,22.252,0l0,0c13.859,1.008,25.442,4.004,34.002,9.189
			c8.56,5.182,14.279,12.27,17.376,23.158c1.53,5.383,0.423,9.105-3.562,13.814c-3.973,4.705-11.145,9.467-19.845,13.377
			c-12.39,5.57-26.315,6.859-39.44,8.596c0.931-6.311-2.274-12.738-6.626-16.41c-8.711-7.34-21.14-9.48-35.19-11.094
			c-28.1-3.23-62.413-1.088-70.755-0.623c-39.809,2.305-97.927,23.605-148.01,33.912c-25.042,5.152-47.858,7.377-63.88,4.033
			c-16.023-3.344-24.976-10.195-28.002-27.66c-0.835-4.814,0.822-8.836,5.189-13.348c4.372-4.51,11.608-8.795,20.095-11.563
			c16.972-5.541,38.355-4.869,50.785,3.404l13.939,9.281c0.75,0.752,1.643,1.346,2.625,1.748l7.407,4.934l-1.282-1.088
			c3.465,3.459,7.789,4.621,12.032,5.094c4.245,0.48,8.766,0.24,13.939-0.367c10.344-1.248,23.055-4.221,37.565-8.031
			c29.021-7.617,65.274-18.766,101.475-27.504c27.15-6.553,54.327-11.65,77.911-12.939L361.911,1196.633z"/>
		<path style="fill:#464C63;" d="M192.611,1332.534c-21.077,1.393-47.931,11.527-65.697,42.658c0,0-8.71,14.816-11.156,32.154
			l-0.031,0.16v0.16c0,0-1.646,14.607-2.313,18.531v0.16l-0.031,0.16c0,0-0.63,1.328-0.875,2.094l-1.531-2.813
			c0,0-2.209-4.063-6.625-6.938c-4.416-2.875-11.764-4.633-19.813-2.031c0,0-5.876,1.771-10.656,7s-8.03,15.131-3.969,26.188
			l0.063,0.16l0.031,0.16c0,0,3.288,7.598,11.438,14.094c8.042,6.412,21.304,12.207,40.594,12c0.622,0,29.121,2.805,50.406-20.531
			l0.062-0.16h0.094c18.73-21.762,31.882-37.389,41.531-46.906c9.649-9.518,14.886-11.752,17.719-11.469
			c2.833,0.287,8.178,3.986,16.5,13.969c11.994,14.877,22.49,30.457,35.375,44.563c21.355,23.42,50.333,20.588,50.906,20.531
			c19.3,0.176,32.468-5.621,40.406-12.063c8.039-6.525,11.156-14.189,11.156-14.189h0.032h0.032
			c4.062-11.057,0.812-20.959-3.969-26.188c-4.781-5.229-10.656-7-10.656-7c-8.05-2.605-15.396-0.848-19.813,2.031
			c-4.416,2.877-6.625,6.938-6.625,6.938l-1.531,2.813c-0.244-0.752-0.875-2.094-0.875-2.094l-0.032-0.16v-0.16
			c-0.666-3.916-2.313-18.531-2.313-18.531v-0.16l-0.032-0.16c-2.448-17.34-11.156-32.154-11.156-32.154
			c-17.766-31.129-44.267-41.268-65.344-42.658c-11.962-1.736-24.58,2.438-35.829,5.072c-12.304-2.641-22.779-5.588-35.475-5.232
			L192.611,1332.534z M193.289,1348.503c17.229-1.137,30.719,4.156,30.719,4.156l1.406,0.561h5.344l1.406-0.561
			c0,0,13.489-5.293,30.719-4.156s37.278,7.953,52.5,34.625c0,0,7.317,13.188,9.188,26.438c0.035,0.336,1.41,13.199,2.375,19
			c0,0,0.695,5.77,4.531,11.344c3.819,5.551,12.149,11.074,23,10c0.09-0.004,3.286-0.16,6.844-1.906
			c3.546-1.766,8.104-6.904,8.094-13.279c0.008,0-0.323-0.992-0.312-1.217c0.606,0.4,0.779,0.32,1.375,0.961
			c1.612,1.764,3.13,3.297,0.75,9.813c-0.026,0-1.094,3.223-6.25,7.406c-5.216,4.234-14.219,8.879-30.688,8.594h-0.5h-0.5
			c0,0-21.442,2.348-37.688-15.406c-15.35-18.658-26.078-33.4-34.969-44.063c-8.947-10.73-16.423-18.582-27.187-19.656
			c-10.764-1.072-19.903,5.516-30.563,16.031s-23.733,26.148-42.406,47.844l0.125-0.191c-16.301,17.873-37.188,15.438-37.188,15.438
			h-0.5h-0.531c-16.461,0.32-25.605-4.316-30.969-8.594c-5.257-4.191-6.421-7.371-6.469-7.5c-2.284-6.359-0.846-7.973,0.75-9.721
			c0.596-0.656,0.769-0.576,1.375-0.961c0.011,0.225-0.321,1.137-0.312,1.217c-0.014,6.373,4.557,11.553,8.125,13.313
			c3.536,1.744,6.606,1.867,6.781,1.875c10.866,1.088,19.208-4.447,23.031-10c3.836-5.572,4.531-11.344,4.531-11.344
			c0.965-5.801,2.339-18.66,2.375-19c1.869-13.25,9.188-26.438,9.188-26.438C153.916,1364.641,172.937,1350.106,193.289,1348.503
			L193.289,1348.503z"/>
		<path style="fill:#52A25B;" d="M361.923,1196.635c-23.584,1.297-50.76,6.385-77.911,12.939
			c-36.201,8.738-72.455,19.885-101.476,27.504c-14.51,3.811-27.221,6.785-37.566,8.031c-1.12,0.16-2.122,0.16-3.187,0.256
			c0.176,0.016,0.336,0.16,0.496,0.16c4.245,0.48,8.765,0.225,13.939-0.367c10.343-1.248,23.054-4.223,37.564-8.031
			c29.021-7.619,65.275-18.766,101.476-27.504c27.023-6.523,54.061-11.59,77.569-12.908c-3.647-0.004-7.053-0.24-10.908,0
			L361.923,1196.635z M72.623,1218.639c-9.021-0.512-18.611,0.703-27.096,3.469c-8.487,2.768-15.723,7.053-20.096,11.563
			c-4.365,4.512-6.021,8.533-5.188,13.348c3.026,17.465,11.98,24.314,28.002,27.66c6.466,1.344,14.247,1.568,22.627,1.279
			c-4.031-0.225-7.93-0.561-11.377-1.279c-16.022-3.344-24.976-10.195-28.002-27.66c-0.832-4.814,0.816-8.836,5.189-13.348
			c4.371-4.51,11.607-8.795,20.094-11.563c5.661-1.848,11.793-2.713,17.939-3.125c-0.72,0-1.36-0.305-2.093-0.352V1218.639z
			 M299.357,1235.672c-0.864,0.012-1.008,0-1.845,0c10.898,0,22.47,0.367,33.378,1.623c14.049,1.615,26.479,3.754,35.19,11.096
			c4.352,3.67,7.557,10.1,6.626,16.408c3.696-0.496,7.477-1.104,11.25-1.623c0.224-5.766-2.648-11.43-6.626-14.783
			c-8.711-7.342-21.141-9.48-35.19-11.096c-14.051-1.615-29.65-1.877-42.784-1.686V1235.672z"/>
		<path style="fill:#31AF66;" d="M117.313,1051.051c0,0,13.579,57.535,14.751,88.951c0.176,4.436-0.224,10.121-0.4,15.377
			c1.552-0.207,6.5-0.752,8.938-1.057c0.192-4.941,0.576-10.186,0.4-14.314c-1.168-31.416-14.751-90.73-14.751-90.73
			L117.313,1051.051z"/>
		<path style="fill:#D6B31E;" d="M130.907,1171.569c0,0-5.588,48.67-6.344,53.51l4.596,3.063c0.418,0.32,0.803,0.672,1.152,1.057
			c-0.48-0.48,0.16,0.16,2.376,0.367c1.104,0.16,4.875,0.176,4.875,0.176s-1.158-1.039-2.275-1.623l-4.594-3.063
			c0.752-4.838,6.78-54.26,6.78-54.26L130.907,1171.569z"/>
		<path style="fill:#D8793E;" d="M193.193,1348.499c-17.216,1.152-37.174,7.988-52.378,34.631c0,0-7.351,13.191-9.22,26.441
			c0,0.32-1.504,13.566-2.469,19.252c0,0.24-0.752,5.641-4.5,11.094c-2.925,4.244-8.461,8.463-15.751,9.752
			c1.312,0.271,2.197,0.32,2.25,0.32c10.852,1.072,19.088-4.518,22.907-10.064c3.757-5.455,4.471-10.855,4.501-11.096
			c0.96-5.686,2.432-18.932,2.469-19.252c1.869-13.248,9.22-26.439,9.22-26.439c15.007-26.297,34.628-33.225,51.69-34.506
			c-2.775-0.16-5.525-0.336-8.594-0.16l0,0L193.193,1348.499z M262.886,1348.499c-16.624-1.104-29.189,3.623-30.096,3.969
			c0,0.014,0.624,0.191,0.624,0.191l1.44,0.592h2.688h2.626l1.408-0.592c0,0,9.258-3.381,22.033-4.031
			c-0.24-0.016-0.48-0.16-0.72-0.16L262.886,1348.499z M242.852,1381.221c-2.541-0.256-5.005-0.014-7.407,0.527
			c9.661,1.824,16.838,9.078,25.191,19.098c8.893,10.666,19.581,25.367,34.938,44.037h0.16
			c16.235,17.668,37.564,15.502,37.564,15.502l0.624-0.16h0.464c0.848,0.014,1.472-0.16,2.282-0.16
			c-7.421-0.576-20.472-3.182-31.565-15.252h-0.16c-15.358-18.668-26.045-33.369-34.94-44.037
			c-8.946-10.73-16.425-18.553-27.189-19.629L242.852,1381.221z M87.093,1433.573c-0.608,0.4-0.832,0.271-1.44,0.943
			c-1.6,1.748-2.979,3.32-0.688,9.688v0.16c0,0.16,1.28,3.146,6.501,7.314c5.362,4.279,14.478,8.93,30.94,8.627h0.464l0.496,0.16
			c0,0,2.554,0,5.97-0.256c-14.777-0.225-23.41-4.463-28.471-8.502c-1.168-0.928-1.52-1.52-2.314-2.313
			c-1.104-0.287-2.299-0.561-3.687-1.248c-3.579-1.764-8.191-6.953-8.157-13.346c0,0,0.384-0.912,0.384-1.152L87.093,1433.573z
			 M369.08,1433.573c0,0.225,0.384,1.232,0.368,1.279c-0.16,6.285-4.524,11.379-8.031,13.127c-1.826,0.912-3.475,1.424-4.719,1.688
			c2.264,0.4,4.68,0.561,7.25,0.32c0-0.004,0.006,0.004,0.16,0c0.16-0.006,1.653-0.287,3.531-0.848
			c2.499-2.682,3.736-4.768,3.751-4.813c2.413-6.566,0.8-8.049-0.816-9.814c-0.592-0.641-0.832-0.512-1.44-0.943L369.08,1433.573z"
			/>
	</g>
</g>
<g>
</g>
<g>
</g>
<g>
</g>
<g>
</g>
<g>
</g>
<g>
</g>
<g>
</g>
<g>
</g>
<g>
</g>
<g>
</g>
<g>
</g>
<g>
</g>
<g>
</g>
<g>
</g>
<g>
</g>
</svg>
