<?xml version="1.0" encoding="iso-8859-1"?>
<!-- Generator: Adobe Illustrator 19.0.0, SVG Export Plug-In . SVG Version: 6.00 Build 0)  -->
<svg version="1.1" id="Layer_1" xmlns="http://www.w3.org/2000/svg" xmlns:xlink="http://www.w3.org/1999/xlink" x="0px" y="0px"
	 viewBox="0 0 464.008 464.008" style="enable-background:new 0 0 464.008 464.008;" xml:space="preserve">
<g transform="translate(0 -1020.36)" shape-rendering="auto" image-rendering="auto" color-rendering="auto" color-interpolation="sRGB">
	<path style="fill:#464C63;" d="M277.473,1181.19c-15.071,3.52-47.219,9.656-47.219,9.656c-4.727,0.896-7.599,5.732-6.125,10.313
		c0,0,10.635,32.791,16.063,48.844c2.071,6.129,6.144,11.611,11.969,15.031h0.032c12.886,7.521,29.611,2.734,37.031-10.281
		c4.043-7.092,4.044-15.01,1.656-22.25c8.215,0.656,13.893-5.533,17.625-11.465c3.579-5.689,4.121-13.256,2.594-20
		c-1.527-6.744-5.445-13.463-12.25-17.438c-7.076-4.135-14.897-3.846-21.375-2.342L277.473,1181.19z"/>
	<path style="fill:#2ECC71;" d="M281.098,1196.783c4.182-0.977,7.366-0.801,9.688,0.561c2.26,1.328,3.991,3.943,4.719,7.156
		c0.727,3.213,0.177,6.701-0.844,8.469c-1.504,2.605-2.788,3.641-5.031,4.344s-6.062,0.863-12.031-0.752
		c-9.001-2.412-14.158,9.904-6.125,14.625c5.238,3.059,7.082,9.977,3.844,15.656c-3.239,5.682-9.82,7.436-15.063,4.375
		c-2.224-1.313-3.941-3.486-4.906-6.344c-4.404-13.027-10.553-31.908-13.219-40.125c8.301-1.6,25.981-4.934,38.969-7.969
		L281.098,1196.783z"/>
	<g>
		<g>
			<path style="fill:#464C63;" d="M371.078,1359.942l-15.355,4.137l28.937,108.191l15.472-4.137L371.078,1359.942z"/>
			<path style="fill:#464C63;" d="M415.605,1455.852c-0.723,0.025-1.439,0.148-2.129,0.367l-46.299,12.402
				c-4.272,1.143-6.81,5.531-5.668,9.805s5.532,6.811,9.804,5.668l46.299-12.402c4.328-0.891,7.114-5.123,6.223-9.451
				c-0.796-3.863-4.29-6.572-8.231-6.377V1455.852z"/>
			<path style="fill:#464C63;" d="M92.81,1359.942l-28.937,108.193l15.355,4.137l29.055-108.191L92.81,1359.942z"/>
			<path style="fill:#464C63;" d="M47.219,1455.967c-4.386,0.535-7.507,4.525-6.971,8.912c0.403,3.299,2.802,6.004,6.028,6.799
				l46.417,12.402c4.272,1.143,8.662-1.395,9.804-5.668s-1.395-8.662-5.668-9.805l0,0l-46.417-12.402
				c-1.035-0.293-2.119-0.375-3.187-0.24L47.219,1455.967z"/>
		</g>
		<path style="fill:#464C63;" d="M211.973,1116.408c-6.83-0.305-13.768,3.084-18.938,7.875c-5.169,4.793-9.063,11.709-9.063,19.75
			c0.01,8.344,4.237,15.15,8.906,20.156c10.939,11.736,33.031,37.406,33.031,37.406c3.137,3.654,8.767,3.73,12,0.16
			c0,0,23.554-26.293,34.969-39.377c4.342-4.973,7.045-11.387,7.063-18.279c0-15.244-12.682-27.625-27.969-27.625
			c-8.426,0-15.431,4.164-20.594,10.094c-3.679-7.924-12.111-9.84-19.406-10.162V1116.408z"/>
	</g>
	<path style="fill:#2ECC71;" d="M211.973,1132.408c3.128,0,4.805,0.623,6.656,2.344c1.851,1.723,3.967,5.129,5.594,11.314
		c2.346,9.133,15.799,7.396,15.75-2.031c0-6.438,5.203-11.625,12-11.625s11.969,5.188,11.969,11.625
		c-0.014,2.732-1.056,5.447-3.094,7.781c-9.304,10.662-23.049,25.988-28.875,32.5c-5.627-6.525-17.952-20.92-27.406-31.063
		c-3.06-3.281-4.59-6.328-4.594-9.219c0-2.801,1.444-5.688,3.938-8c2.493-2.313,5.902-3.625,8.063-3.625V1132.408z"/>
	<path style="fill:#464C63;" d="M186.473,1181.19c-6.478-1.504-14.33-1.793-21.406,2.342c-6.805,3.977-10.723,10.695-12.25,17.438
		c-1.527,6.744-0.988,14.311,2.594,20c3.739,5.939,10.755,11.191,17.656,11.465c-2.388,7.24-2.387,15.158,1.656,22.25
		c7.421,13.016,24.145,17.803,37.031,10.281h0.032c5.825-3.42,9.898-8.902,11.969-15.031c5.427-16.053,16.031-48.844,16.031-48.844
		c1.475-4.57-1.38-9.4-6.094-10.313c0,0-32.148-6.137-47.219-9.656L186.473,1181.19z"/>
	<path style="fill:#2ECC71;" d="M182.816,1196.783c12.98,3.031,30.654,6.367,38.969,7.969c-2.666,8.217-8.783,27.098-13.188,40.125
		c-0.965,2.857-2.714,5.039-4.937,6.344c-5.238,3.037-11.829,1.297-15.063-4.375c-3.239-5.68-1.394-12.598,3.844-15.656
		c8.033-4.721,2.876-17.037-6.125-14.625c-5.969,1.621-9.787,1.455-12.031,0.752s-3.496-1.738-5-4.344
		c-1.021-1.768-1.571-5.256-0.844-8.469c0.727-3.213,2.459-5.836,4.719-7.156c2.314-1.344,5.493-1.52,9.656-0.561L182.816,1196.783z
		"/>
	<g>
		<path style="fill:#464C63;" d="M78.873,1156.381c-0.242,0.008-0.544,0-0.81,0c-3.151,0.48-5.703,2.818-6.5,5.908l-28.594,105.223
			c-12.007,44.111,13.481,89.846,57.281,102.754c0.181,0,0.423,0.176,0.605,0.24c43.465,9.57,86.407-18.842,94.844-62.596
			l11.583-44.26c3.435-8.402-14.2-13.037-15.344-4.033l-6.428,24.664H56.199c0.363-4.191,1.01-8.418,2.159-12.625l26.688-97.691
			l93.372,22.01c10.44,2.68,14.376-13.033,3.907-15.594l-101.06-23.76c-0.774-0.24-1.572-0.305-2.377-0.305L78.873,1156.381z"/>
		<path style="fill:#82DD47;" d="M56.936,1300.418h124.25l-1.095,4.033c-0.048,0.201-0.089,0.404-0.122,0.607
			c-6.767,35.096-40.772,57.439-75.594,49.846c-25.756-7.773-43.454-29.467-47.468-54.471L56.936,1300.418z"/>
		<path style="fill:#464C63;" d="M384.718,1156.381c-0.292-0.016-0.585-0.016-0.877,0l0,0c-0.401,0-0.797,0.16-1.185,0.24
			l-100.511,23.465c-10.396,2.605-6.49,18.199,3.907,15.596l92.948-21.686l26.563,97.691c1.149,4.215,1.826,8.424,2.159,12.625
			h-129.25l-6.719-25.283c-2.215-11.055-18.888-6.744-15.469,3.998l11.938,44.877c8.437,43.754,51.473,72.195,94.938,62.627
			c0.164,0,0.325-0.16,0.484-0.24c43.801-12.908,69.413-58.641,57.406-102.754l-28.718-105.254c-0.924-3.465-4.04-5.891-7.625-5.939
			L384.718,1156.381z"/>
		<path style="fill:#82DD47;" d="M282.718,1300.418h124.25c-4.015,25.002-21.713,46.664-47.468,54.438
			c-34.778,7.516-68.834-14.791-75.594-49.846c-0.033-0.203-0.073-0.406-0.122-0.607L282.718,1300.418z"/>
		<g>
			<path style="fill:#464C63;" d="M231.826,1020.361c-4.418,0.048-7.962,3.668-7.914,8.087c0,0.021,0.001,0.041,0.001,0.062v47.719
				c-0.004,4.436,3.588,8.035,8.023,8.039c4.436,0.006,8.035-3.588,8.039-8.023c0-0.006,0-0.01,0-0.016v-47.719
				c0.082-4.418-3.433-8.066-7.851-8.148C232.025,1020.359,231.925,1020.359,231.826,1020.361z"/>
			<path style="fill:#464C63;" d="M159.306,1028.394c-4.407,0.324-7.716,4.16-7.391,8.567c0.123,1.67,0.767,3.259,1.84,4.543
				l31.89,39.805c2.742,3.482,7.787,4.08,11.269,1.338s4.081-7.787,1.338-11.27c-0.029-0.035-0.058-0.072-0.087-0.107l-31.89-39.805
				C164.619,1029.33,161.998,1028.175,159.306,1028.394L159.306,1028.394z"/>
			<path style="fill:#464C63;" d="M303.637,1028.394c-2.363,0.084-4.568,1.208-6.023,3.072l-31.772,39.806
				c-3.034,3.213-2.889,8.277,0.323,11.311c3.212,3.035,8.276,2.889,11.31-0.322c0.28-0.297,0.536-0.613,0.768-0.949l31.89-39.805
				c2.827-3.396,2.365-8.441-1.031-11.269C307.574,1028.965,305.625,1028.308,303.637,1028.394L303.637,1028.394z"/>
		</g>
		<g>
			<path style="fill:#74BD45;" d="M56.921,1300.42c4.014,25.004,21.712,46.695,47.469,54.471c6.55,1.424,12.995,1.52,19.312,0.943
				c-2.683-0.24-5.355-0.352-8.062-0.943c-25.755-7.773-43.453-29.467-47.469-54.471H56.953H56.921z"/>
			<path style="fill:#74BD45;" d="M282.733,1300.42l1.056,4c0.061,0.195,0.114,0.393,0.16,0.592
				c6.243,32.373,35.784,53.539,67.656,50.721c-27.31-2.461-50.907-22.211-56.406-50.721c-0.046-0.199-0.099-0.396-0.16-0.592
				l-1.056-4H282.733z"/>
		</g>
	</g>
	<g>
		<path style="fill:#31AF66;" d="M211.983,1132.445L211.983,1132.445c-6.802,0-12.062,5.156-12.062,11.594
			c0.006,2.891,1.568,5.936,4.626,9.219c9.462,10.15,21.882,24.553,27.499,31.064c0.704-0.801,2.582-2.91,3.501-3.938
			c-6.275-7.262-15.739-18.264-24-27.127c-3.061-3.283-4.619-6.328-4.626-9.219c0-5.289,3.616-9.527,8.656-10.938
			c-1.168-0.352-2.338-0.721-3.656-0.721L211.983,1132.445z M251.953,1132.445c-6.797,0-11.907,5.156-11.907,11.594
			c-0.027,0.559-0.113,1.115-0.256,1.656c-0.06,0.275-0.135,0.549-0.224,0.816c-0.074,0.244-0.159,0.484-0.256,0.721
			c-0.444,0.982-1.082,1.865-1.875,2.594c-0.578,0.529-1.231,0.973-1.938,1.313c0.245,0.113,0.496,0.217,0.752,0.305
			c0.499,0.172,1.013,0.295,1.536,0.367c0.516,0.105,1.041,0.158,1.568,0.16c1.886-0.09,3.679-0.844,5.062-2.127
			c0.793-0.729,1.431-1.611,1.875-2.594c0.097-0.236,0.182-0.477,0.256-0.721c0.1-0.268,0.185-0.539,0.256-0.816
			c0.143-0.541,0.229-1.098,0.256-1.656c0-5.252,3.462-9.496,8.406-10.938c-1.12-0.32-2.248-0.656-3.499-0.656L251.953,1132.445z"/>
		<path style="fill:#31AF66;" d="M177.254,1196.234c-1.582,0.16-2.944,0.48-4.094,1.119c-0.019,0.012-0.045,0-0.062,0
			c-2.233,1.328-3.935,3.938-4.656,7.125c-0.615,2.715-0.192,5.408,0.531,7.313c0.169,0.385,0.164,0.783,0.375,1.152
			c0.694,1.217,1.553,2.234,2.5,3.063c0.706,0.545,1.455,0.977,2.438,1.279c1.472,0.465,3.947,0.447,6.938,0.16
			c-1.905-0.961-3.662-2.311-4.875-4.438c-3.235-5.678-1.487-12.533,3.75-15.594c0.64-0.367,1.487-0.432,2.25-0.623
			c-1.89-0.4-3.612-0.607-5.094-0.496l0,0L177.254,1196.234z M195.379,1216.078c-1.095,0.043-2.169,0.309-3.156,0.783
			c3.987,1.932,5.654,6.729,3.723,10.717c-0.734,1.516-1.928,2.762-3.41,3.563c-0.011,0-0.021,0-0.032,0
			c-0.021,0.014-0.042,0-0.062,0c-1.284,0.768-2.37,1.764-3.219,2.906c-0.862,1.168-1.484,2.473-1.844,3.875
			c-0.719,2.807-0.371,5.941,1.25,8.781c0.66,1.152,1.448,2.094,2.344,2.906c0.069,0,0.117,0.16,0.188,0.225
			c0.005,0.004,0.026-0.004,0.032,0c0.892,0.768,1.9,1.359,2.937,1.781c0.098,0,0.183,0.16,0.281,0.16
			c0.018,0.006,0.045-0.006,0.062,0c1.076,0.4,2.201,0.623,3.344,0.656c0.094,0.004,0.187,0,0.281,0
			c1.147,0.008,2.309-0.191,3.438-0.561c0.045-0.014,0.082,0,0.125,0c-2.394-0.896-4.572-2.568-6.031-5.125
			c-3.242-5.678-1.36-12.533,3.875-15.594c3.909-2.084,5.388-6.943,3.304-10.854c-1.448-2.715-4.322-4.363-7.398-4.24h-0.032
			L195.379,1216.078z"/>
		<path style="fill:#31AF66;" d="M286.598,1196.266c-1.544-0.16-3.323,0-5.313,0.496c-0.07,0-0.117,0.014-0.188,0
			c-0.012,0.004-0.019-0.004-0.032,0c-7.433,1.738-14.453,2.994-22.313,4.531c-5.835,1.137-12.998,2.689-16.563,3.375
			c0.002,0.006-0.002,0,0,0c1.869,5.76,5.735,17.535,9.188,28.063c1.497,4.527,2.645,8.146,3.969,12.063
			c0.24,0.721,0.639,1.248,0.969,1.875c0.338,0.623,0.608,1.344,1.031,1.875c0.825,1.057,1.801,1.943,2.906,2.594
			c0.012,0.008,0.019,0,0.032,0c0.16,0.16,0.337,0,0.5,0.16c1.286,0.672,2.623,1.104,3.969,1.184c1.516,0.16,3.029-0.16,4.469-0.688
			c-0.656-0.225-1.345-0.287-1.969-0.656c-2.226-1.313-4.007-3.521-4.969-6.377c-4.403-13.023-10.456-31.93-13.125-40.154
			c8.366-1.607,25.925-4.881,38.875-7.906c0.16,0,0.277,0.004,0.437,0c-0.64-0.16-1.152-0.48-1.875-0.527L286.598,1196.266z
			 M282.66,1216.455L282.66,1216.455c-0.832,0.027-1.654,0.184-2.438,0.465c2.94,0.576,5.255,0.783,7,0.592
			c-0.24-0.16-0.491-0.16-0.719-0.256c-1.188-0.609-2.509-0.912-3.844-0.881L282.66,1216.455z"/>
	</g>
</g>
<g>
</g>
<g>
</g>
<g>
</g>
<g>
</g>
<g>
</g>
<g>
</g>
<g>
</g>
<g>
</g>
<g>
</g>
<g>
</g>
<g>
</g>
<g>
</g>
<g>
</g>
<g>
</g>
<g>
</g>
</svg>
