<?xml version="1.0" encoding="iso-8859-1"?>
<!-- Generator: Adobe Illustrator 19.0.0, SVG Export Plug-In . SVG Version: 6.00 Build 0)  -->
<svg version="1.1" id="Layer_1" xmlns="http://www.w3.org/2000/svg" xmlns:xlink="http://www.w3.org/1999/xlink" x="0px" y="0px"
	 viewBox="0 0 512 512" style="enable-background:new 0 0 512 512;" xml:space="preserve">
<path style="fill:#A56200;" d="M441.207,74.355L67.641,479.399c-14.597,15.827-39.261,16.824-55.087,2.227
	c-15.827-14.597-16.824-39.261-2.227-55.088c0.699-0.758,1.484-1.537,2.227-2.227L417.598,50.746
	c6.783-6.256,17.353-5.828,23.609,0.955C447.139,58.133,447.017,68.02,441.207,74.355z"/>
<g>
	<circle style="fill:#915600;" cx="429.402" cy="62.549" r="42.503"/>
	<polygon style="fill:#915600;" points="195.552,255.536 236.418,296.4 268.497,261.618 230.334,223.455 	"/>
</g>
<path style="fill:#C57300;" d="M94.402,50.746l405.044,373.566c15.827,14.597,16.824,39.261,2.227,55.088
	c-14.597,15.827-39.26,16.824-55.087,2.227c-0.758-0.699-1.537-1.484-2.227-2.227L70.793,74.355
	c-6.256-6.783-5.828-17.353,0.955-23.609C78.18,44.813,88.067,44.937,94.402,50.746z"/>
<circle style="fill:#A56200;" cx="82.601" cy="62.549" r="42.503"/>
<g>
</g>
<g>
</g>
<g>
</g>
<g>
</g>
<g>
</g>
<g>
</g>
<g>
</g>
<g>
</g>
<g>
</g>
<g>
</g>
<g>
</g>
<g>
</g>
<g>
</g>
<g>
</g>
<g>
</g>
</svg>
